<?xml version="1.0" standalone="no"?>
<!DOCTYPE svg PUBLIC "-//W3C//DTD SVG 20010904//EN"
 "http://www.w3.org/TR/2001/REC-SVG-20010904/DTD/svg10.dtd">
<svg version="1.0" xmlns="http://www.w3.org/2000/svg"
 width="225.000000pt" height="225.000000pt" viewBox="0 0 225.000000 225.000000"
 preserveAspectRatio="xMidYMid meet">

<g transform="translate(0.000000,225.000000) scale(0.100000,-0.100000)"
fill="#000000" stroke="none">
<path d="M540 1513 l1 -698 -250 -3 -250 -2 -20 -27 c-36 -45 -28 -65 76 -186
364 -422 478 -548 499 -553 13 -3 35 -3 48 0 15 4 120 116 282 303 314 361
314 360 314 388 0 12 -9 34 -21 49 l-20 26 -250 0 -249 0 0 700 0 700 -80 0
-80 0 0 -697z"/>
<path d="M1105 2196 c-42 -18 -83 -69 -91 -112 -14 -77 44 -166 118 -179 18
-3 254 -5 525 -3 478 3 492 4 519 24 51 38 69 71 69 129 0 58 -18 91 -69 129
-27 20 -40 21 -534 23 -406 2 -513 0 -537 -11z"/>
<path d="M1080 1718 c-68 -47 -88 -131 -47 -202 44 -78 28 -76 597 -76 470 0
508 1 540 18 38 20 80 89 80 132 -1 43 -37 108 -72 130 -32 19 -49 20 -549 20
l-516 0 -33 -22z"/>
<path d="M1105 1266 c-42 -18 -83 -69 -91 -112 -14 -77 44 -166 118 -179 18
-3 254 -5 525 -3 478 3 492 4 519 24 51 38 69 71 69 129 0 58 -18 91 -69 129
-27 20 -40 21 -534 23 -406 2 -513 0 -537 -11z"/>
<path d="M1552 790 c-45 -28 -72 -76 -72 -130 0 -54 27 -102 72 -130 31 -19
51 -20 313 -20 l280 0 37 25 c92 62 83 212 -15 258 -30 15 -74 17 -309 17
-255 0 -275 -1 -306 -20z"/>
<path d="M1105 336 c-42 -18 -83 -69 -91 -112 -14 -77 44 -166 118 -179 18 -3
254 -5 525 -3 478 3 492 4 519 24 51 38 69 71 69 129 0 58 -18 91 -69 129 -27
20 -40 21 -534 23 -406 2 -513 0 -537 -11z"/>
</g>
</svg>
